<svg width="200" height="60" viewBox="0 0 200 60" fill="none" xmlns="http://www.w3.org/2000/svg">
  <!-- Background Circle -->
  <circle cx="30" cy="30" r="28" fill="#2563eb" stroke="#1d4ed8" stroke-width="2"/>
  
  <!-- Construction/Building Icon -->
  <g transform="translate(15, 15)">
    <!-- Building Structure -->
    <rect x="8" y="12" width="14" height="18" fill="white" stroke="none"/>
    <rect x="2" y="18" width="8" height="12" fill="white" stroke="none"/>
    <rect x="18" y="15" width="6" height="15" fill="white" stroke="none"/>
    
    <!-- Fiber Optic Lines -->
    <path d="M5 8 L35 8" stroke="#60a5fa" stroke-width="1.5" stroke-linecap="round"/>
    <path d="M3 11 L37 11" stroke="#3b82f6" stroke-width="1.5" stroke-linecap="round"/>
    <path d="M4 14 L36 14" stroke="#1d4ed8" stroke-width="1.5" stroke-linecap="round"/>
    
    <!-- Connection Points -->
    <circle cx="5" cy="8" r="1" fill="#60a5fa"/>
    <circle cx="35" cy="8" r="1" fill="#60a5fa"/>
    <circle cx="3" cy="11" r="1" fill="#3b82f6"/>
    <circle cx="37" cy="11" r="1" fill="#3b82f6"/>
  </g>
  
  <!-- Company Text -->
  <text x="70" y="25" font-family="Arial, sans-serif" font-size="18" font-weight="bold" fill="#2563eb">ProTief</text>
  <text x="70" y="42" font-family="Arial, sans-serif" font-size="12" font-weight="normal" fill="#64748b">Baumanagement</text>
  
  <!-- Decorative Elements -->
  <rect x="165" y="20" width="2" height="20" fill="#60a5fa" rx="1"/>
  <rect x="170" y="15" width="2" height="30" fill="#3b82f6" rx="1"/>
  <rect x="175" y="18" width="2" height="24" fill="#1d4ed8" rx="1"/>
</svg>
